<?xml version="1.0" encoding="UTF-8"?>
<!DOCTYPE svg PUBLIC "-//W3C//DTD SVG 1.1//EN" "http://www.w3.org/Graphics/SVG/1.1/DTD/svg11.dtd">
<svg xmlns="http://www.w3.org/2000/svg" xml:space="preserve" width="100%" height="100%" version="1.1" style="shape-rendering:geometricPrecision; text-rendering:geometricPrecision; image-rendering:optimizeQuality; fill-rule:evenodd; clip-rule:evenodd"
viewBox="0 0 30156.14 14628.67"
 xmlns:xlink="http://www.w3.org/1999/xlink">
 <defs>
  <style type="text/css">
   <![CDATA[
    .fil0 {fill:#303C42}
    .fil5 {fill:#546E7A}
    .fil3 {fill:#ABA96A}
    .fil1 {fill:#FAFAFA}
    .fil2 {fill:black;fill-opacity:0.101961}
    .fil4 {fill:white;fill-opacity:0.200000}
   ]]>
  </style>
 </defs>
 <g id="Layer_x0020_1">
  <metadata id="CorelCorpID_0Corel-Layer"/>
  <g id="g4669">
   <path id="path4574" class="fil0" d="M23570.44 5133.15l-600.37 -450.28c-33.12,-24.92 -75.93,-35.32 -115.21,-27.85 -40.75,6.89 -76.8,30.34 -99.67,64.64l-212.21 318.29 -451.26 -338.55c99.41,-246.75 178,-516.31 233.76,-805.64 246.24,-220.04 404.49,-536.46 404.49,-891.93 0,-334.13 -137.69,-636.25 -358.69,-854.14 -239.55,-1267.02 -1195.1,-2147.69 -2342.93,-2147.69 -1147.84,0 -2103.39,880.67 -2342.96,2147.7 -221,217.88 -358.69,520.01 -358.69,854.14 0,355.46 158.24,671.88 404.49,891.93 55.75,289.37 134.28,558.95 233.69,805.7l-451.19 338.49 -212.21 -318.29c-22.87,-34.31 -58.93,-57.75 -99.67,-64.64 -39.58,-7.33 -82.37,2.93 -115.21,27.85l-600.37 450.28c-63.91,47.79 -79.15,137.05 -34.88,203.3l1200.73 1801.1c22.87,34.31 58.93,57.75 99.67,64.64 8.2,1.46 16.72,2.2 25.22,2.2 32.25,0 63.91,-10.41 90,-30.04l600.37 -450.28c63.91,-47.79 79.15,-137.05 34.88,-203.3l-221.45 -332.19 274.86 -206.16c131.37,694.44 740.69,1221.96 1472.72,1221.96 732.02,0 1341.35,-527.54 1472.71,-1221.96l274.86 206.16 -221.45 332.19c-44.27,66.25 -29.03,155.51 34.88,203.3l600.37 450.28c26.09,19.64 57.75,30.04 90,30.04 8.5,0 17,-0.73 25.22,-2.2 40.75,-6.89 76.8,-30.34 99.67,-64.64l1200.73 -1801.1c44.25,-66.25 29.01,-155.51 -34.9,-203.3l0 -0.01z"/>
   <g id="g4576">
    <circle id="circle4578" class="fil1" cx="21529.26" cy="3001.84" r="900.55"/>
    <circle id="circle4580" class="fil1" cx="18527.44" cy="3001.84" r="900.55"/>
   </g>
   <path id="path4582" class="fil2" d="M22083.52 2297.47c120.96,153.33 196.19,344.25 196.19,554.27 0,496.6 -403.95,900.54 -900.55,900.54 -210.03,0 -400.93,-75.22 -554.27,-196.18 165.04,209.2 417.78,346.27 704.36,346.27 496.6,0 900.55,-403.94 900.55,-900.54 0.01,-286.56 -137.05,-539.32 -346.28,-704.36z"/>
   <path id="path4584" class="fil2" d="M19081.7 2297.47c120.96,153.33 196.19,344.25 196.19,554.27 0,496.6 -403.95,900.54 -900.55,900.54 -210.03,0 -400.93,-75.22 -554.27,-196.18 165.04,209.2 417.78,346.27 704.36,346.27 496.6,0 900.55,-403.94 900.55,-900.54 0.01,-286.56 -137.05,-539.32 -346.28,-704.36z"/>
   <path id="path4586" class="fil3" d="M18527.44 4202.56c662.23,0 1200.73,-538.66 1200.73,-1200.72 0,-662.07 -538.51,-1200.73 -1200.73,-1200.73 -167.38,0 -326.6,34.83 -471.48,96.94 294.56,-956.17 1065.17,-1597.86 1972.39,-1597.86 907.21,0 1677.83,641.68 1972.38,1597.86 -144.88,-62.11 -304.1,-96.94 -471.48,-96.94 -662.23,0 -1200.73,538.66 -1200.73,1200.73 0,662.06 538.51,1200.72 1200.73,1200.72 154.92,0 301.98,-31.86 438.06,-85.51 -115.06,442.94 -290.46,824.51 -517.52,1127.14 -195.36,-602.13 -755.11,-1041.63 -1421.45,-1041.63 -666.31,0 -1226,439.43 -1421.42,1041.49 -227.18,-302.43 -402.55,-683.97 -517.59,-1127.01 136.1,53.67 283.17,85.52 438.12,85.52l-0.01 0z"/>
   <path id="path4588" class="fil4" d="M20028.35 300.18c-907.22,0 -1677.84,641.68 -1972.39,1597.86 108.39,-46.48 226.66,-71.5 348.54,-84.26 262.41,-907.8 887.76,-1513.6 1623.85,-1513.6z"/>
   <path id="path4590" class="fil2" d="M21652.2 1813.78c121.87,12.78 240.14,37.78 348.54,84.26 -294.56,-956.17 -1065.18,-1597.86 -1972.39,-1597.86 736.09,0 1361.43,605.8 1623.85,1513.6z"/>
   <path id="path4592" class="fil4" d="M18424.43 4192.25c-116.76,-10.81 -230.01,-33.77 -335.09,-75.21 115.05,443.04 290.41,824.57 517.59,1127.01 26.61,-81.95 61.15,-160.1 100.61,-235.33 -117.61,-237.14 -211.8,-512.47 -283.11,-816.48l0 0.01z"/>
   <path id="path4594" class="fil2" d="M21349.14 5008.74c39.47,75.27 74.06,153.45 100.66,235.45 227.07,-302.63 402.46,-684.19 517.52,-1127.14 -105.1,41.43 -218.34,64.39 -335.09,75.2 -71.31,303.94 -165.52,579.28 -283.1,816.49l0.01 0z"/>
   <g id="g4596">
    <polygon id="polygon4598" class="fil5" points="18173.61,6569.14 17813.91,6838.98 16779.98,5288.09 17139.67,5018.25 "/>
    <path id="path4600" class="fil5" d="M17680.39 5288.01l411.8 -308.92c124.37,245.15 271.78,461.87 440.92,645.16l-419.04 314.28 -433.69 -650.52 0.01 0z"/>
    <circle id="circle4602" class="fil5" cx="20028.35" cy="5703.48" r="1200.73"/>
   </g>
   <path id="path4604" class="fil2" d="M21008.77 5014.45c42.34,122.63 70.21,252.01 70.21,388.84 0,662.07 -538.51,1200.73 -1200.72,1200.73 -405.44,0 -762.93,-203.17 -980.43,-511.71 162.54,470.71 605.17,811.89 1130.53,811.89 662.22,0 1200.72,-538.66 1200.72,-1200.73 0,-256.71 -82.54,-493.61 -220.31,-689.02z"/>
   <g id="g4606">
    <path id="path4608" class="fil5" d="M21523.68 5624.31c169.05,-183.39 316.42,-400.13 440.76,-645.27l411.88 308.97 -433.67 650.51 -418.97 -314.21z"/>
    <polygon id="polygon4610" class="fil5" points="23276.71,5288.09 22242.78,6838.98 21883.09,6569.14 22917.02,5018.25 "/>
   </g>
   <g id="g4612">
    <path id="path4614" class="fil0" d="M19684.2 5147.08c-58.63,-58.63 -153.61,-58.63 -212.23,0 -58.63,58.63 -58.63,153.61 0,212.23l150.1 150.1c29.31,29.31 67.72,43.97 106.12,43.97 38.4,0 76.8,-14.66 106.12,-43.97 58.63,-58.63 58.63,-153.61 0,-212.23l-150.11 -150.1z"/>
    <path id="path4616" class="fil0" d="M20372.51 5147.08l-150.1 150.1c-58.63,58.63 -58.63,153.61 0,212.23 29.31,29.31 67.72,43.97 106.12,43.97 38.4,0 76.8,-14.66 106.12,-43.97l150.1 -150.1c58.63,-58.63 58.63,-153.61 0,-212.23 -58.65,-58.63 -153.63,-58.63 -212.25,0l0.01 0z"/>
    <path id="path4618" class="fil0" d="M20434.64 5897.54c-58.63,-58.63 -153.61,-58.63 -212.23,0 -58.63,58.63 -58.63,153.61 0,212.23l150.1 150.1c29.31,29.31 67.72,43.97 106.12,43.97 38.4,0 76.8,-14.66 106.12,-43.97 58.63,-58.63 58.63,-153.61 0,-212.23l-150.11 -150.1z"/>
    <path id="path4620" class="fil0" d="M19622.05 5897.54l-150.1 150.1c-58.63,58.63 -58.63,153.61 0,212.23 29.31,29.31 67.72,43.97 106.12,43.97 38.4,0 76.8,-14.66 106.12,-43.97l150.1 -150.1c58.63,-58.63 58.63,-153.61 0,-212.23 -58.63,-58.62 -153.61,-58.62 -212.25,0l0.01 0z"/>
   </g>
  </g>
  <g id="g4629">
  </g>
  <g id="g4631">
  </g>
  <g id="g4633">
  </g>
  <g id="g4635">
  </g>
  <g id="g4637">
  </g>
  <g id="g4639">
  </g>
  <g id="g4641">
  </g>
  <g id="g4643">
  </g>
  <g id="g4645">
  </g>
  <g id="g4647">
  </g>
  <g id="g4649">
  </g>
  <g id="g4651">
  </g>
  <g id="g4653">
  </g>
  <g id="g4655">
  </g>
  <g id="g4657">
  </g>
  <g id="_1935819208480">
   <path id="path4715" class="fil0" d="M1894.88 2815.87c128.34,-452.96 234.03,-807.78 324.62,-1162.6l30.2 0c98.14,369.92 196.28,694.54 339.72,1185.25l452.96 1472.11 -1608.01 0 460.51 -1494.76zm-218.93 -1691.05l-1675.95 5292.08 777.58 0 452.95 -1449.48 2015.68 0 445.41 1449.48 807.78 0 -1691.05 -5292.08 -1132.4 0z"/>
   <path id="path4717" class="fil0" d="M5308.96 6416.9l747.39 0 0 -4152.13 -747.39 0 0 4152.13zm-143.44 -5322.28c0,271.78 218.93,483.16 490.71,483.16 286.88,0 498.26,-211.38 498.26,-483.16 0,-294.42 -211.38,-505.81 -498.26,-505.81 -271.78,0 -490.71,211.38 -490.71,505.81z"/>
   <path id="path4719" class="fil0" d="M9559.7 2227.02c-90.59,-22.65 -226.48,-37.75 -400.12,-37.75 -498.26,0 -868.17,249.13 -1049.35,581.3l-30.2 0 -158.54 -505.81 -573.75 0 0 4152.13 739.84 0 0 -3012.18c211.37,-317.07 619.04,-475.61 1004.05,-475.61 150.99,0 317.07,22.65 468.06,60.39l0 -762.48 0.01 0.01z"/>
  </g>
  <g id="_1935819218016">
   <path id="path4721" class="fil0" d="M1839.16 9253.54l-1600.46 0 0 5292.08 754.94 0 0 -2030.77 702.09 0c1313.59,0 1894.88,-694.53 1894.88,-1728.79 0,-1094.66 -694.53,-1532.52 -1751.44,-1532.52l-0.01 0zm-150.99 664.34c739.84,0 1117.3,279.33 1117.3,966.32 0,611.5 -279.33,981.42 -1124.85,981.42l-686.99 0 0 -1947.73 694.54 0 0 -0.01z"/>
   <path id="path4723" class="fil0" d="M4893.92 12439.35c0,-1011.6 279.33,-1502.31 981.42,-1502.31 732.28,0 1026.71,513.36 1026.71,1555.16 0,1011.61 -256.68,1502.32 -981.42,1502.32 -724.74,0 -1026.71,-520.91 -1026.71,-1555.17zm981.42 2174.22c1298.49,0 1796.74,-883.27 1796.74,-2166.66 0,-1275.83 -437.86,-2128.91 -1751.45,-2128.91 -1298.49,0 -1796.74,883.27 -1796.74,2166.65 0,1275.84 437.86,2128.92 1751.45,2128.92z"/>
   <path id="path4725" class="fil0" d="M8671.31 8815.68l0 4846.67c0,588.85 309.52,943.67 913.47,943.67 188.73,0 377.47,-37.75 528.45,-98.14l0 -611.5c-67.95,22.65 -158.54,60.39 -294.43,60.39 -279.33,0 -407.66,-143.44 -407.66,-490.71l0 -4650.39 -739.84 0 0.01 0.01z"/>
   <path id="path4727" class="fil0" d="M10897.77 8815.68l0 4846.67c0,588.85 309.53,943.67 913.47,943.67 188.74,0 377.47,-37.75 528.45,-98.14l0 -611.5c-67.95,22.65 -158.54,60.39 -294.42,60.39 -279.33,0 -407.66,-143.44 -407.66,-490.71l0 -4650.39 -739.84 0 0 0.01z"/>
   <path id="path4729" class="fil0" d="M13071.39 13216.94c15.1,958.77 475.61,1411.73 1336.24,1411.73 641.69,0 1004.06,-301.97 1162.6,-498.26l30.2 0 120.79 415.21 611.5 0 0 -4152.13 -747.38 0 0 2763.05c-30.2,505.81 -392.57,853.08 -951.22,853.08 -543.55,0 -815.33,-301.97 -815.33,-913.47l0 -2702.66 -747.38 0 0 2823.45 -0.02 0z"/>
   <path id="path4731" class="fil0" d="M18740.47 14583.37c558.65,0 845.53,-113.24 996.51,-211.38l-196.28 -581.3c-128.34,90.59 -324.62,158.54 -619.05,158.54 -339.72,0 -551.1,-181.18 -551.1,-588.85l0 -2378.03 1109.76 0 0 -588.85 -1109.76 0 0 -1079.56 -498.26 0 -241.57 1049.36 -588.85 150.99 0 468.06 588.85 0 0 2393.13c0,845.53 415.2,1207.9 1109.75,1207.9l0 -0.01z"/>
   <path id="path4733" class="fil0" d="M20580.39 14545.62l747.39 0 0 -4152.13 -747.39 0 0 4152.13zm-143.44 -5322.28c0,271.78 218.93,483.16 490.71,483.16 286.87,0 498.26,-211.38 498.26,-483.16 0,-294.42 -211.38,-505.81 -498.26,-505.81 -271.78,0 -490.71,211.38 -490.71,505.81z"/>
   <path id="path4735" class="fil0" d="M23162.74 12439.35c0,-1011.6 279.33,-1502.31 981.42,-1502.31 732.29,0 1026.7,513.36 1026.7,1555.16 0,1011.61 -256.67,1502.32 -981.4,1502.32 -724.74,0 -1026.71,-520.91 -1026.71,-1555.17l-0.01 0zm981.41 2174.22c1298.48,0 1796.74,-883.27 1796.74,-2166.66 0,-1275.83 -437.86,-2128.91 -1751.44,-2128.91 -1298.49,0 -1796.75,883.27 -1796.75,2166.65 0,1275.84 437.86,2128.92 1751.45,2128.92z"/>
   <path id="path4737" class="fil0" d="M30156.14 11676.88c-15.1,-921.02 -505.81,-1373.98 -1328.68,-1373.98 -581.3,0 -1004.06,317.07 -1162.6,513.36l-30.2 0 -150.99 -422.76 -573.75 0 0 4152.13 747.38 0 0 -2921.59c135.89,-377.47 490.71,-671.89 951.22,-671.89 520.9,0 800.23,324.62 800.23,890.82l0 2702.66 747.39 0 0 -2868.74 0 -0.01z"/>
  </g>
 </g>
</svg>
