<svg xmlns="http://www.w3.org/2000/svg" viewBox="0 0 576 432"><defs/><path fill="#fff" d="M0 0h576v432H0z"/><path fill="#fff" d="M0 432h576V0H0z" shape-rendering="crispEdges"/><clipPath id="a"><path d="M0 432h576V0H0z"/></clipPath><g clip-path="url(#a)"><path fill="#fff" d="M74.88 180.582h190.445V48.142H74.88z" shape-rendering="crispEdges"/><path fill="none" stroke="#262626" stroke-width=".5" d="M74.88 180.582v-1.911M74.88 48.142v1.91M112.969 180.582v-1.911M112.969 48.142v1.91M151.058 180.582v-1.911M151.058 48.142v1.91M189.147 180.582v-1.911M189.147 48.142v1.91M227.236 180.582v-1.911M227.236 48.142v1.91M265.325 180.582v-1.911M265.325 48.142v1.91"/><text font-family="Arial" font-size="10" transform="translate(71.88 196.107)"><tspan x="0" y="0" fill="#262626">0</tspan></text><text font-family="Arial" font-size="10" transform="translate(109.969 196.107)"><tspan x="0" y="0" fill="#262626">5</tspan></text><text font-family="Arial" font-size="10" transform="translate(145.058 196.107)"><tspan x="0 6" y="0" fill="#262626">10</tspan></text><text font-family="Arial" font-size="10" transform="translate(183.147 196.107)"><tspan x="0 6" y="0" fill="#262626">15</tspan></text><text font-family="Arial" font-size="10" transform="translate(221.236 196.107)"><tspan x="0 6" y="0" fill="#262626">20</tspan></text><text font-family="Arial" font-size="10" transform="translate(259.325 196.107)"><tspan x="0 6" y="0" fill="#262626">25</tspan></text><path fill="none" stroke="#262626" stroke-width=".5" d="M74.88 180.582h1.909M265.325 180.582h-1.909M74.88 161.662h1.909M265.325 161.662h-1.909M74.88 142.742h1.909M265.325 142.742h-1.909M74.88 123.822h1.909M265.325 123.822h-1.909M74.88 104.902h1.909M265.325 104.902h-1.909M74.88 85.982h1.909M265.325 85.982h-1.909M74.88 67.062h1.909M265.325 67.062h-1.909M74.88 48.142h1.909M265.325 48.142h-1.909"/><text font-family="Arial" font-size="10" transform="translate(63.868 184.582)"><tspan x="0" y="0" fill="#262626">0</tspan></text><text font-family="Arial" font-size="10" transform="translate(57.868 165.662)"><tspan x="0 6" y="0" fill="#262626">20</tspan></text><text font-family="Arial" font-size="10" transform="translate(57.868 146.742)"><tspan x="0 6" y="0" fill="#262626">40</tspan></text><text font-family="Arial" font-size="10" transform="translate(57.868 127.822)"><tspan x="0 6" y="0" fill="#262626">60</tspan></text><text font-family="Arial" font-size="10" transform="translate(57.868 108.902)"><tspan x="0 6" y="0" fill="#262626">80</tspan></text><text font-family="Arial" font-size="10" transform="translate(51.868 89.982)"><tspan x="0 6 12" y="0" fill="#262626">100</tspan></text><text font-family="Arial" font-size="10" transform="translate(51.868 71.062)"><tspan x="0 6 12" y="0" fill="#262626">120</tspan></text><text font-family="Arial" font-size="10" transform="translate(51.868 52.142)"><tspan x="0 6 12" y="0" fill="#262626">140</tspan></text><path fill="none" stroke="#262626" stroke-dasharray="16,0" stroke-linecap="square" stroke-width=".5" d="M74.88 180.582h190.445M74.88 48.142h190.445M74.88 180.582V48.142M265.325 180.582V48.142"/><text font-family="Arial" font-size="11" font-weight="bold" transform="translate(77.603 38.142)"><tspan x="0 8 14 18 24 28 34 37 43 49 55 58 62 65 72 78 85 88 94 101 108 111 114 120 127 134 141 147 154 159 166 172 179 182" y="-3">Data-2.csv - медіанні концентрації</tspan></text><text font-family="Arial" font-size="11" transform="rotate(-90 93.365 46.497)"><tspan x="0 7 16 19" y="-3" fill="#262626">PM, </tspan> <tspan x="22" y="-3" fill="#262626">μ</tspan> <tspan x="28 34 37" y="-3" fill="#262626">g/m</tspan> <tspan x="46" y="-9" fill="#262626" font-size="9">3</tspan></text><text font-family="Arial" font-size="11" transform="translate(138.103 212.107)"><tspan x="0 7 13 19 25 31 37 40 46 52 58" y="-2" fill="#262626">Година доби</tspan></text><path fill="none" stroke="#0071bc" stroke-linejoin="round" stroke-width=".5" d="M82.498 160.546V66.39M80.746 66.39h3.504M80.746 160.546h3.504M90.116 163.243V69.922M88.364 69.922h3.504M88.364 163.243h3.504M97.733 165.848V73.921M95.981 73.921h3.505M95.981 165.848h3.505M105.351 165.236V76.784M103.599 76.784h3.504M103.599 165.236h3.504M112.969 164.011V73.886M111.217 73.886h3.504M111.217 164.011h3.504M120.587 162.506V72.601M118.835 72.601h3.504M118.835 162.506h3.504M128.205 159.304V70.15M126.453 70.15h3.504M126.453 159.304h3.504M135.822 158.372V70.379M134.07 70.38h3.505M134.07 158.372h3.505M143.44 161.3V72.243M141.688 72.243h3.504M141.688 161.3h3.504M151.058 164.058V75.686M149.306 75.686h3.504M149.306 164.058h3.504M158.676 160.685V79.019M156.924 79.02h3.504M156.924 160.685h3.504M166.294 165.09V83.093M164.542 83.093h3.504M164.542 165.09h3.504M173.911 164.609v-82.27M172.159 82.338h3.505M172.159 164.609h3.505M181.529 164.866v-84.9M179.777 79.965h3.504M179.777 164.866h3.504M189.147 162.305v-88.57M187.395 73.736h3.504M187.395 162.305h3.504M196.765 164.387V72.62M195.013 72.62h3.504M195.013 164.387h3.504M204.383 166.344V70.499M202.631 70.499h3.504M202.631 166.344h3.504M212 165.671V63.416M210.248 63.416h3.505M210.248 165.671h3.505M219.618 166.182V66.494M217.866 66.494h3.504M217.866 166.182h3.504M227.236 163.392V65.379M225.484 65.38h3.504M225.484 163.392h3.504M234.854 164.318V67.616M233.102 67.616h3.504M233.102 164.318h3.504M242.472 162.529V67.087M240.72 67.087h3.504M240.72 162.529h3.504M250.089 162.066V66.588M248.337 66.588h3.505M248.337 162.066h3.505M257.707 156.861v-91.51M255.955 65.351h3.504M255.955 156.861h3.504M82.498 128.579l7.618 2.401 7.617 1.89 7.618.856 7.618-1.42 7.618-.892 7.618-2.191 7.617.079 7.618 1.092 7.618 4.205 7.618-.355 7.618 3.296 7.617.87 7.618-2.016 7.618-3.419 7.618.404 7.618-.71 7.617-2.222 7.618-.178 7.618-2.711 7.618.708 7.618.583 7.617.169 7.618-1.247"/></g><g clip-path="url(#a)"><path fill="#fff" d="M330.835 180.582H521.28V48.142H330.835z" shape-rendering="crispEdges"/><path fill="none" stroke="#262626" stroke-width=".5" d="M330.835 180.582v-1.911M330.835 48.142v1.91M368.924 180.582v-1.911M368.924 48.142v1.91M407.013 180.582v-1.911M407.013 48.142v1.91M445.102 180.582v-1.911M445.102 48.142v1.91M483.191 180.582v-1.911M483.191 48.142v1.91M521.28 180.582v-1.911M521.28 48.142v1.91"/><text font-family="Arial" font-size="10" transform="translate(327.835 196.107)"><tspan x="0" y="0" fill="#262626">0</tspan></text><text font-family="Arial" font-size="10" transform="translate(365.924 196.107)"><tspan x="0" y="0" fill="#262626">5</tspan></text><text font-family="Arial" font-size="10" transform="translate(401.013 196.107)"><tspan x="0 6" y="0" fill="#262626">10</tspan></text><text font-family="Arial" font-size="10" transform="translate(439.102 196.107)"><tspan x="0 6" y="0" fill="#262626">15</tspan></text><text font-family="Arial" font-size="10" transform="translate(477.191 196.107)"><tspan x="0 6" y="0" fill="#262626">20</tspan></text><text font-family="Arial" font-size="10" transform="translate(515.28 196.107)"><tspan x="0 6" y="0" fill="#262626">25</tspan></text><path fill="none" stroke="#262626" stroke-width=".5" d="M330.835 180.582h1.909M521.28 180.582h-1.909M330.835 161.662h1.909M521.28 161.662h-1.909M330.835 142.742h1.909M521.28 142.742h-1.909M330.835 123.822h1.909M521.28 123.822h-1.909M330.835 104.902h1.909M521.28 104.902h-1.909M330.835 85.982h1.909M521.28 85.982h-1.909M330.835 67.062h1.909M521.28 67.062h-1.909M330.835 48.142h1.909M521.28 48.142h-1.909"/><text font-family="Arial" font-size="10" transform="translate(319.823 184.582)"><tspan x="0" y="0" fill="#262626">0</tspan></text><text font-family="Arial" font-size="10" transform="translate(313.823 165.662)"><tspan x="0 6" y="0" fill="#262626">20</tspan></text><text font-family="Arial" font-size="10" transform="translate(313.823 146.742)"><tspan x="0 6" y="0" fill="#262626">40</tspan></text><text font-family="Arial" font-size="10" transform="translate(313.823 127.822)"><tspan x="0 6" y="0" fill="#262626">60</tspan></text><text font-family="Arial" font-size="10" transform="translate(313.823 108.902)"><tspan x="0 6" y="0" fill="#262626">80</tspan></text><text font-family="Arial" font-size="10" transform="translate(307.823 89.982)"><tspan x="0 6 12" y="0" fill="#262626">100</tspan></text><text font-family="Arial" font-size="10" transform="translate(307.823 71.062)"><tspan x="0 6 12" y="0" fill="#262626">120</tspan></text><text font-family="Arial" font-size="10" transform="translate(307.823 52.142)"><tspan x="0 6 12" y="0" fill="#262626">140</tspan></text><path fill="none" stroke="#262626" stroke-dasharray="16,0" stroke-linecap="square" stroke-width=".5" d="M330.835 180.582H521.28M330.835 48.142H521.28M330.835 180.582V48.142M521.28 180.582V48.142"/><text font-family="Arial" font-size="11" font-weight="bold" transform="translate(303.557 38.142)"><tspan x="0 8 14 18 24 28 36 43 46 53 59 65 72 78 84 88 94 97 103 109 115 118 122 125 132 138 145 148 154 161 168 171 174 180 187 194 201 207 214 219 226 232 239 242" y="-3">Data-Bulhakova-2.csv - медіанні концентрації</tspan></text><text font-family="Arial" font-size="11" transform="rotate(-90 221.343 -81.48)"><tspan x="0 7 16 19" y="-3" fill="#262626">PM, </tspan> <tspan x="22" y="-3" fill="#262626">μ</tspan> <tspan x="28 34 37" y="-3" fill="#262626">g/m</tspan> <tspan x="46" y="-9" fill="#262626" font-size="9">3</tspan></text><text font-family="Arial" font-size="11" transform="translate(394.057 212.107)"><tspan x="0 7 13 19 25 31 37 40 46 52 58" y="-2" fill="#262626">Година доби</tspan></text><path fill="none" stroke="#0071bc" stroke-linejoin="round" stroke-width=".5" d="M338.453 161.943V65.819M336.701 65.819h3.504M336.701 161.943h3.504M346.07 163.434V71.292M344.318 71.292h3.505M344.318 163.434h3.505M353.688 161.881V74.158M351.936 74.158h3.504M351.936 161.881h3.504M361.306 161.497V74.469M359.554 74.469h3.504M359.554 161.497h3.504M368.924 165.955V71.084M367.172 71.084h3.504M367.172 165.955h3.504M376.542 162.447V67.678M374.79 67.678h3.504M374.79 162.447h3.504M384.16 159.894V69.047M382.407 69.047h3.505M382.407 159.894h3.505M391.777 158.539V68.485M390.025 68.485h3.504M390.025 158.539h3.504M399.395 158.728V69.051M397.643 69.052h3.504M397.643 158.728h3.504M407.013 160.137v-86.91M405.261 73.227h3.504M405.261 160.137h3.504M414.631 160.206V77.392M412.879 77.392h3.504M412.879 160.206h3.504M422.249 162.531V79.774M420.496 79.774h3.505M420.496 162.531h3.505M429.866 165.644V81.906M428.114 81.906h3.504M428.114 165.644h3.504M437.484 164.161V76.999M435.732 77h3.504M435.732 164.161h3.504M445.102 162.513V70.71M443.35 70.71h3.504M443.35 162.513h3.504M452.72 161.74V62.908M450.968 62.908h3.504M450.968 161.74h3.504M460.338 166.502V57.952M458.585 57.953h3.505M458.585 166.502h3.505M467.955 160.809V54.293M466.203 54.293h3.504M466.203 160.809h3.504M475.573 159.738V54.046M473.821 54.046h3.504M473.821 159.738h3.504M483.191 159.67V58.976M481.439 58.976h3.504M481.439 159.67h3.504M490.809 161.829V59.511M489.057 59.511h3.504M489.057 161.829h3.504M498.427 165.304V59.582M496.674 59.582h3.505M496.674 165.304h3.505M506.044 164.62V60.413M504.292 60.413h3.504M504.292 164.62h3.504M513.662 161.323V62.826M511.91 62.826h3.504M511.91 161.323h3.504M338.453 128.98l7.617 2.763 7.618 1.612 7.618-2.024 7.618-.439 7.618-2.475 7.618.189 7.617.494 7.618 1.275 7.618 2.54 7.618 1.415 7.618.92 7.617 4.055 7.618-4.497 7.618-2.376 7.618-3.88 7.618.238 7.617-4.653 7.618-1.635 7.618 2.183 7.618-.206 7.618 1.867 7.617 1.078 7.618.171"/></g><g clip-path="url(#a)"><path fill="#fff" d="M74.88 384.48h190.445V252.04H74.88z" shape-rendering="crispEdges"/><path fill="none" stroke="#262626" stroke-width=".5" d="M74.88 384.48v-1.911M74.88 252.04v1.911M112.969 384.48v-1.911M112.969 252.04v1.911M151.058 384.48v-1.911M151.058 252.04v1.911M189.147 384.48v-1.911M189.147 252.04v1.911M227.236 384.48v-1.911M227.236 252.04v1.911M265.325 384.48v-1.911M265.325 252.04v1.911"/><text font-family="Arial" font-size="10" transform="translate(71.88 400.005)"><tspan x="0" y="0" fill="#262626">0</tspan></text><text font-family="Arial" font-size="10" transform="translate(109.969 400.005)"><tspan x="0" y="0" fill="#262626">5</tspan></text><text font-family="Arial" font-size="10" transform="translate(145.058 400.005)"><tspan x="0 6" y="0" fill="#262626">10</tspan></text><text font-family="Arial" font-size="10" transform="translate(183.147 400.005)"><tspan x="0 6" y="0" fill="#262626">15</tspan></text><text font-family="Arial" font-size="10" transform="translate(221.236 400.005)"><tspan x="0 6" y="0" fill="#262626">20</tspan></text><text font-family="Arial" font-size="10" transform="translate(259.325 400.005)"><tspan x="0 6" y="0" fill="#262626">25</tspan></text><path fill="none" stroke="#262626" stroke-width=".5" d="M74.88 384.48h1.909M265.325 384.48h-1.909M74.88 365.56h1.909M265.325 365.56h-1.909M74.88 346.64h1.909M265.325 346.64h-1.909M74.88 327.72h1.909M265.325 327.72h-1.909M74.88 308.8h1.909M265.325 308.8h-1.909M74.88 289.88h1.909M265.325 289.88h-1.909M74.88 270.96h1.909M265.325 270.96h-1.909M74.88 252.04h1.909M265.325 252.04h-1.909"/><text font-family="Arial" font-size="10" transform="translate(63.868 388.48)"><tspan x="0" y="0" fill="#262626">0</tspan></text><text font-family="Arial" font-size="10" transform="translate(57.868 369.56)"><tspan x="0 6" y="0" fill="#262626">20</tspan></text><text font-family="Arial" font-size="10" transform="translate(57.868 350.64)"><tspan x="0 6" y="0" fill="#262626">40</tspan></text><text font-family="Arial" font-size="10" transform="translate(57.868 331.72)"><tspan x="0 6" y="0" fill="#262626">60</tspan></text><text font-family="Arial" font-size="10" transform="translate(57.868 312.8)"><tspan x="0 6" y="0" fill="#262626">80</tspan></text><text font-family="Arial" font-size="10" transform="translate(51.868 293.88)"><tspan x="0 6 12" y="0" fill="#262626">100</tspan></text><text font-family="Arial" font-size="10" transform="translate(51.868 274.96)"><tspan x="0 6 12" y="0" fill="#262626">120</tspan></text><text font-family="Arial" font-size="10" transform="translate(51.868 256.04)"><tspan x="0 6 12" y="0" fill="#262626">140</tspan></text><path fill="none" stroke="#262626" stroke-dasharray="16,0" stroke-linecap="square" stroke-width=".5" d="M74.88 384.48h190.445M74.88 252.04h190.445M74.88 384.48V252.04M265.325 384.48V252.04"/><text font-family="Arial" font-size="11" font-weight="bold" transform="translate(41.603 242.04)"><tspan x="0 8 14 18 24 28 35 42 49 55 62 69 75 81 87 93 96 100 106 109 115 121 127 130 134 137 144 150 157 160 166 173 180 183 186 192 199 206 213 219 226 231 238 244 251 254" y="-3">Data-Lobanovskyi-2.csv - медіанні концентрації</tspan></text><text font-family="Arial" font-size="11" transform="rotate(-90 195.314 148.446)"><tspan x="0 7 16 19" y="-3" fill="#262626">PM, </tspan> <tspan x="22" y="-3" fill="#262626">μ</tspan> <tspan x="28 34 37" y="-3" fill="#262626">g/m</tspan> <tspan x="46" y="-9" fill="#262626" font-size="9">3</tspan></text><text font-family="Arial" font-size="11" transform="translate(138.103 416.005)"><tspan x="0 7 13 19 25 31 37 40 46 52 58" y="-2" fill="#262626">Година доби</tspan></text><path fill="none" stroke="#0071bc" stroke-linejoin="round" stroke-width=".5" d="M82.498 364.54V265.8M80.746 265.8h3.504M80.746 364.54h3.504M90.116 363.461v-92.459M88.364 271.002h3.504M88.364 363.461h3.504M97.733 364.868v-93.674M95.981 271.194h3.505M95.981 364.868h3.505M105.351 362.398v-89.377M103.599 273.021h3.504M103.599 362.398h3.504M112.969 367.339v-95.836M111.217 271.503h3.504M111.217 367.339h3.504M120.587 371.92v-97.455M118.835 274.465h3.504M118.835 371.92h3.504M128.205 362.8v-94.188M126.453 268.612h3.504M126.453 362.8h3.504M135.822 359.932v-91.927M134.07 268.005h3.505M134.07 359.932h3.505M143.44 365.226V270.78M141.688 270.78h3.504M141.688 365.226h3.504M151.058 366.655v-90.55M149.306 276.105h3.504M149.306 366.655h3.504M158.676 365.273v-86.789M156.924 278.484h3.504M156.924 365.273h3.504M166.294 368.762v-85.794M164.542 282.968h3.504M164.542 368.762h3.504M173.911 369.394v-83.555M172.159 285.839h3.505M172.159 369.394h3.505M181.529 367.147v-83.973M179.777 283.174h3.504M179.777 367.147h3.504M189.147 364.904v-89.651M187.395 275.253h3.504M187.395 364.904h3.504M196.765 365.716v-98.05M195.013 267.666h3.504M195.013 365.716h3.504M204.383 365.252V263.058M202.631 263.058h3.504M202.631 365.252h3.504M212 366.448V263.019M210.248 263.019h3.505M210.248 366.448h3.505M219.618 367.436V265.74M217.866 265.74h3.504M217.866 367.436h3.504M227.236 364.668V264.122M225.484 264.122h3.504M225.484 364.668h3.504M234.854 365.256v-98.612M233.102 266.644h3.504M233.102 365.256h3.504M242.472 364.962v-100.85M240.72 264.112h3.504M240.72 364.962h3.504M250.089 362.351v-96.292M248.337 266.059h3.505M248.337 362.351h3.505M257.707 360.776v-97.099M255.955 263.677h3.504M255.955 360.776h3.504M82.498 330.824l7.618 2.398 7.617-.51 7.618-.271 7.618.555 7.618 2.297 7.618-3.776 7.617-.856 7.618 2.745 7.618 4.074 7.618.491 7.618 1.906 7.617 2.222 7.618-1.693 7.618-5.713 7.618-1.777 7.618-1.024 7.617-1.209 7.618-.061 7.618-1.29 7.618.909 7.618-.154 7.617-.315 7.618-.082"/></g><g clip-path="url(#a)"><path fill="#fff" d="M330.835 384.48H521.28V252.04H330.835z" shape-rendering="crispEdges"/><path fill="none" stroke="#262626" stroke-width=".5" d="M330.835 384.48v-1.911M330.835 252.04v1.911M368.924 384.48v-1.911M368.924 252.04v1.911M407.013 384.48v-1.911M407.013 252.04v1.911M445.102 384.48v-1.911M445.102 252.04v1.911M483.191 384.48v-1.911M483.191 252.04v1.911M521.28 384.48v-1.911M521.28 252.04v1.911"/><text font-family="Arial" font-size="10" transform="translate(327.835 400.005)"><tspan x="0" y="0" fill="#262626">0</tspan></text><text font-family="Arial" font-size="10" transform="translate(365.924 400.005)"><tspan x="0" y="0" fill="#262626">5</tspan></text><text font-family="Arial" font-size="10" transform="translate(401.013 400.005)"><tspan x="0 6" y="0" fill="#262626">10</tspan></text><text font-family="Arial" font-size="10" transform="translate(439.102 400.005)"><tspan x="0 6" y="0" fill="#262626">15</tspan></text><text font-family="Arial" font-size="10" transform="translate(477.191 400.005)"><tspan x="0 6" y="0" fill="#262626">20</tspan></text><text font-family="Arial" font-size="10" transform="translate(515.28 400.005)"><tspan x="0 6" y="0" fill="#262626">25</tspan></text><path fill="none" stroke="#262626" stroke-width=".5" d="M330.835 384.48h1.909M521.28 384.48h-1.909M330.835 362.407h1.909M521.28 362.407h-1.909M330.835 340.333h1.909M521.28 340.333h-1.909M330.835 318.26h1.909M521.28 318.26h-1.909M330.835 296.187h1.909M521.28 296.187h-1.909M330.835 274.113h1.909M521.28 274.113h-1.909M330.835 252.04h1.909M521.28 252.04h-1.909"/><text font-family="Arial" font-size="10" transform="translate(319.823 388.48)"><tspan x="0" y="0" fill="#262626">0</tspan></text><text font-family="Arial" font-size="10" transform="translate(319.823 366.407)"><tspan x="0" y="0" fill="#262626">2</tspan></text><text font-family="Arial" font-size="10" transform="translate(319.823 344.333)"><tspan x="0" y="0" fill="#262626">4</tspan></text><text font-family="Arial" font-size="10" transform="translate(319.823 322.26)"><tspan x="0" y="0" fill="#262626">6</tspan></text><text font-family="Arial" font-size="10" transform="translate(319.823 300.187)"><tspan x="0" y="0" fill="#262626">8</tspan></text><text font-family="Arial" font-size="10" transform="translate(313.823 278.113)"><tspan x="0 6" y="0" fill="#262626">10</tspan></text><text font-family="Arial" font-size="10" transform="translate(313.823 256.04)"><tspan x="0 6" y="0" fill="#262626">12</tspan></text><path fill="none" stroke="#262626" stroke-dasharray="16,0" stroke-linecap="square" stroke-width=".5" d="M330.835 384.48H521.28M330.835 252.04H521.28M330.835 384.48V252.04M521.28 384.48V252.04"/><text font-family="Arial" font-size="11" font-weight="bold" transform="translate(319.557 242.04)"><tspan x="0 8 14 18 24 28 36 44 52 56 62 65 71 77 83 86 90 93 100 106 113 116 122 129 136 139 142 148 155 162 169 175 182 187 194 200 207 210" y="-3">Data-NAU-2.csv - медіанні концентрації</tspan></text><text font-family="Arial" font-size="11" transform="rotate(-90 326.291 17.468)"><tspan x="0 7 16 19" y="-3" fill="#262626">PM, </tspan> <tspan x="22" y="-3" fill="#262626">μ</tspan> <tspan x="28 34 37" y="-3" fill="#262626">g/m</tspan> <tspan x="46" y="-9" fill="#262626" font-size="9">3</tspan></text><text font-family="Arial" font-size="11" transform="translate(394.057 416.005)"><tspan x="0 7 13 19 25 31 37 40 46 52 58" y="-2" fill="#262626">Година доби</tspan></text><path fill="none" stroke="#0071bc" stroke-linejoin="round" stroke-width=".5" d="M338.453 364.086v-69.592M336.701 294.494h3.504M336.701 364.086h3.504M346.07 368.825v-74.931M344.318 293.894h3.505M344.318 368.825h3.505M353.688 373.343v-63.606M351.936 309.737h3.504M351.936 373.343h3.504M361.306 372.644v-62.542M359.554 310.102h3.504M359.554 372.644h3.504M368.924 362.037V278.19M367.172 278.19h3.504M367.172 362.037h3.504M376.542 362.217v-96.191M374.79 266.026h3.504M374.79 362.217h3.504M384.16 367.605V267.002M382.407 267.002h3.505M382.407 367.605h3.505M391.777 362.898V259.293M390.025 259.293h3.504M390.025 362.898h3.504M399.395 368.123V265.348M397.643 265.348h3.504M397.643 368.123h3.504M407.013 370.2v-84.952M405.261 285.248h3.504M405.261 370.2h3.504M414.631 367.551v-79.059M412.879 288.492h3.504M412.879 367.551h3.504M422.249 373.53v-74.361M420.496 299.169h3.505M420.496 373.53h3.505M429.866 374.163v-64.839M428.114 309.324h3.504M428.114 374.163h3.504M437.484 369.964v-63.429M435.732 306.535h3.504M435.732 369.964h3.504M445.102 373.717v-66.934M443.35 306.783h3.504M443.35 373.717h3.504M452.72 373.573v-81.322M450.968 292.251h3.504M450.968 373.573h3.504M460.338 372.727v-88.982M458.585 283.745h3.505M458.585 372.727h3.505M467.955 372.872v-92.039M466.203 280.833h3.504M466.203 372.872h3.504M475.573 370.907v-89.391M473.821 281.516h3.504M473.821 370.907h3.504M483.191 370.211v-86.712M481.439 283.499h3.504M481.439 370.211h3.504M490.809 362.625v-83.614M489.057 279.011h3.504M489.057 362.625h3.504M498.427 372.387v-86.011M496.674 286.376h3.505M496.674 372.387h3.505M506.044 367.122v-77.55M504.292 289.572h3.504M504.292 367.122h3.504M513.662 369.135v-79.682M511.91 289.453h3.504M511.91 369.135h3.504M338.453 350.217l7.617 6.271 7.618 2.66 7.618 1.066 7.618-11.5 7.618-5.891 7.618 3.489 7.617-6.437 7.618 2.185 7.618 7.304 7.618-1.375 7.618 7.793 7.617 2.713 7.618.1 7.618-.88 7.618-2.933 7.618-2.319 7.617-1.689 7.618-1.67 7.618-.773 7.618-2.719 7.618 6.151 7.617-2.142 7.618.936"/></g></svg>